<?xml version="1.0" encoding="UTF-8" standalone="no"?>
<svg
   xmlns:dc="http://purl.org/dc/elements/1.1/"
   xmlns:cc="http://creativecommons.org/ns#"
   xmlns:rdf="http://www.w3.org/1999/02/22-rdf-syntax-ns#"
   xmlns:svg="http://www.w3.org/2000/svg"
   xmlns="http://www.w3.org/2000/svg"
   xmlns:xlink="http://www.w3.org/1999/xlink"
   xmlns:sodipodi="http://sodipodi.sourceforge.net/DTD/sodipodi-0.dtd"
   xmlns:inkscape="http://www.inkscape.org/namespaces/inkscape"
   inkscape:export-ydpi="29.99"
   inkscape:export-xdpi="29.99"
   inkscape:export-filename="C:\Users\AFeinstein\Desktop\bitmap.png"
   sodipodi:docname="cmd.svg"
   inkscape:version="1.0 (4035a4fb49, 2020-05-01)"
   id="svg8"
   version="1.1"
   viewBox="0 0 212.04543 60.980423"
   height="60.980423mm"
   width="212.04543mm">
  <defs
     id="defs2">
    <linearGradient
       inkscape:collect="always"
       id="linearGradient1099">
      <stop
         style="stop-color:#4c6d7a;stop-opacity:1"
         offset="0"
         id="stop1093" />
      <stop
         id="stop1095"
         offset="0.5"
         style="stop-color:#bae2ef;stop-opacity:1" />
      <stop
         style="stop-color:#4c6d7a;stop-opacity:1"
         offset="1"
         id="stop1097" />
    </linearGradient>
    <linearGradient
       inkscape:collect="always"
       id="linearGradient1083">
      <stop
         style="stop-color:#86713f;stop-opacity:1"
         offset="0"
         id="stop1077" />
      <stop
         id="stop1079"
         offset="0.5"
         style="stop-color:#dfc27f;stop-opacity:1" />
      <stop
         style="stop-color:#86713f;stop-opacity:1"
         offset="1"
         id="stop1081" />
    </linearGradient>
    <linearGradient
       inkscape:collect="always"
       id="linearGradient1067">
      <stop
         style="stop-color:#b73326;stop-opacity:1"
         offset="0"
         id="stop1061" />
      <stop
         id="stop1063"
         offset="0.49997669"
         style="stop-color:#f49226;stop-opacity:1" />
      <stop
         style="stop-color:#b73326;stop-opacity:1"
         offset="1"
         id="stop1065" />
    </linearGradient>
    <linearGradient
       gradientTransform="translate(-25.570234,107.9554)"
       gradientUnits="userSpaceOnUse"
       y2="10.114099"
       x2="210.22691"
       y1="10.114099"
       x1="160.78787"
       id="linearGradient978"
       xlink:href="#linearGradient1067"
       inkscape:collect="always" />
    <linearGradient
       gradientTransform="translate(-25.570234,107.9554)"
       inkscape:collect="always"
       xlink:href="#linearGradient1083"
       id="linearGradient978-9"
       x1="107.91516"
       y1="10.187268"
       x2="157.22034"
       y2="10.187268"
       gradientUnits="userSpaceOnUse" />
    <linearGradient
       gradientTransform="translate(-25.570234,107.9554)"
       inkscape:collect="always"
       xlink:href="#linearGradient1099"
       id="linearGradient978-5"
       x1="54.903801"
       y1="10.767067"
       x2="104.27589"
       y2="10.767067"
       gradientUnits="userSpaceOnUse" />
  </defs>
  <sodipodi:namedview
     fit-margin-bottom="0"
     fit-margin-right="0"
     fit-margin-left="0"
     fit-margin-top="0"
     inkscape:window-maximized="1"
     inkscape:window-y="-8"
     inkscape:window-x="55"
     inkscape:window-height="1177"
     inkscape:window-width="1857"
     showgrid="false"
     inkscape:document-rotation="0"
     inkscape:current-layer="layer1"
     inkscape:document-units="mm"
     inkscape:cy="177.17202"
     inkscape:cx="381.21845"
     inkscape:zoom="1"
     inkscape:pageshadow="2"
     inkscape:pageopacity="0.0"
     borderopacity="1.0"
     bordercolor="#666666"
     pagecolor="#ffffff"
     id="base" />
  <metadata
     id="metadata5">
    <rdf:RDF>
      <cc:Work
         rdf:about="">
        <dc:format>image/svg+xml</dc:format>
        <dc:type
           rdf:resource="http://purl.org/dc/dcmitype/StillImage" />
        <dc:title />
      </cc:Work>
    </rdf:RDF>
  </metadata>
  <g
     transform="translate(25.570234,-107.9554)"
     id="layer1"
     inkscape:groupmode="layer"
     inkscape:label="Layer 1">
    <g
       id="g871"
       inkscape:export-xdpi="29.99"
       inkscape:export-ydpi="29.99">
      <rect
         style="fill:#ffffff;fill-opacity:1;stroke:none;stroke-width:46.302;stroke-linecap:round;stroke-linejoin:round;stroke-opacity:1"
         id="rect970"
         width="41.720772"
         height="23.758009"
         x="138.92816"
         y="117.67577" />
      <path
         id="path963"
         style="color:#000000;font-style:normal;font-variant:normal;font-weight:normal;font-stretch:normal;font-size:medium;line-height:normal;font-family:sans-serif;font-variant-ligatures:normal;font-variant-position:normal;font-variant-caps:normal;font-variant-numeric:normal;font-variant-alternates:normal;font-variant-east-asian:normal;font-feature-settings:normal;font-variation-settings:normal;text-indent:0;text-align:start;text-decoration:none;text-decoration-line:none;text-decoration-style:solid;text-decoration-color:#000000;letter-spacing:normal;word-spacing:normal;text-transform:none;writing-mode:lr-tb;direction:ltr;text-orientation:mixed;dominant-baseline:auto;baseline-shift:baseline;text-anchor:start;white-space:normal;shape-padding:0;shape-margin:0;inline-size:0;clip-rule:nonzero;display:inline;overflow:visible;visibility:visible;isolation:auto;mix-blend-mode:normal;color-interpolation:sRGB;color-interpolation-filters:linearRGB;solid-color:#000000;solid-opacity:1;vector-effect:none;fill:url(#linearGradient978);fill-opacity:1;fill-rule:nonzero;stroke:none;stroke-width:1;stroke-linecap:butt;stroke-linejoin:miter;stroke-miterlimit:4;stroke-dasharray:none;stroke-dashoffset:0;stroke-opacity:1;color-rendering:auto;image-rendering:auto;shape-rendering:auto;text-rendering:auto;enable-background:accumulate;stop-color:#000000"
         d="M 159.9118,109.85324 C 157.91234,109.86754 157.10967,110.01587 155.82212,110.60514 153.98256,111.44703 152.47481,112.86496 151.75777,114.49017 151.55425,114.95145 151.41692,115.13319 151.41206,115.13664 151.40963,115.13837 151.42869,115.13779 151.37278,115.14026 151.31687,115.14273 151.19612,115.13153 151.02138,115.10305 148.39699,114.67528 146.65569,114.00488 145.29873,112.94504 144.99567,112.70834 144.79447,112.50656 144.40835,112.48409 144.21528,112.47285 144.0273,112.54296 143.89469,112.62465 143.76209,112.70635 143.65943,112.79864 143.54277,112.90422 143.05479,113.34585 142.7588,114.07626 142.47824,114.93717 142.19767,115.79808 141.99307,116.75823 141.97646,117.5644 L 141.96457,118.18555 141.00391,118.09925 C 140.25278,118.03118 139.00553,117.67115 138.29503,117.31429 137.78815,117.0597 137.41197,116.89435 137.08218,116.81199 136.91729,116.77082 136.75937,116.74577 136.57782,116.77323 136.39627,116.80069 136.17458,116.92227 136.06261,117.10344 135.96249,117.26544 135.95168,117.35015 135.90809,117.4998 135.8645,117.64947 135.81835,117.8323 135.7696,118.04292 135.67211,118.46416 135.56583,118.99311 135.47246,119.53896 134.99497,122.33042 135.44598,124.55276 136.9101,126.20263 137.16027,126.48454 137.35228,126.70413 137.55244,126.88269 137.75259,127.06126 137.98669,127.212 138.26971,127.25166 138.55273,127.29131 138.81574,127.21505 139.06656,127.10335 139.31738,126.99165 139.58249,126.83692 139.92594,126.63826 140.02313,126.58205 140.51522,126.4531 141.72479,126.39642 142.93437,126.33974 144.86038,126.31945 147.9239,126.31787 L 155.69138,126.31425 156.58177,125.56443 C 157.22137,125.02623 157.81103,123.9678 158.4354,122.61887 159.01185,121.3735 159.53752,119.89692 159.93763,118.48424 L 160.07199,118.94519 C 160.44735,120.22553 161.01439,121.66997 161.58611,122.89431 161.87197,123.50649 162.1582,124.06321 162.42792,124.51953 162.69764,124.97586 162.93136,125.326 163.20307,125.57218 163.37025,125.72365 163.61306,125.86303 163.92551,125.94683 164.23795,126.03062 164.63517,126.08164 165.23447,126.1246 166.43306,126.21053 168.45076,126.25421 172.09761,126.31425 176.03774,126.37911 178.05803,126.41655 179.11734,126.50546 179.647,126.54992 179.9283,126.61091 180.07026,126.66565 180.21219,126.72039 180.2436,126.75516 180.38083,126.89251 L 181.31617,127.82786 182.43135,126.76952 C 183.87331,125.40126 184.62502,123.52914 184.62502,121.37295 184.62502,120.56058 184.46906,119.47873 184.27155,118.56434 184.17279,118.10714 184.06344,117.69736 183.94909,117.37682 183.89192,117.21653 183.83672,117.07991 183.75995,116.951 183.72156,116.88655 183.68026,116.82217 183.60544,116.75153 183.53062,116.68088 183.40068,116.58358 183.19926,116.58358 183.05596,116.58358 183.05421,116.60295 183.02925,116.61097 183.00429,116.61899 182.98869,116.62558 182.97085,116.63267 182.93515,116.64686 182.89805,116.66208 182.85561,116.68125 182.77074,116.7196 182.66278,116.77249 182.53315,116.83576 182.27387,116.96231 181.93191,117.13441 181.56629,117.3241 180.86116,117.68994 179.7157,118.01898 178.85328,118.09718 L 177.78306,118.1933 177.68746,116.75153 C 177.59261,115.34033 177.36566,114.37674 176.89267,113.58583 176.72565,113.30654 176.56564,113.05351 176.4374,112.86288 176.37329,112.76757 176.31859,112.68874 176.26739,112.62258 176.24179,112.5895 176.21858,112.55971 176.18367,112.52336 176.16621,112.50519 176.14699,112.48668 176.10719,112.4567 176.08728,112.44171 176.06294,112.42309 176.01934,112.40192 175.99755,112.39133 175.97136,112.37901 175.93562,112.36885 175.89988,112.3587 175.79724,112.34921 175.79661,112.34921 175.79597,112.34921 175.71353,112.35641 175.6912,112.3611 175.66885,112.36579 175.65483,112.37073 175.64262,112.37454 175.61819,112.38215 175.60453,112.38696 175.59198,112.3921 175.56689,112.40242 175.54945,112.41047 175.531,112.41949 175.4941,112.43754 175.45318,112.45851 175.40594,112.48409 175.31146,112.53524 175.18868,112.6053 175.03904,112.69131 174.73974,112.86333 174.33956,113.0987 173.90991,113.35742 172.20868,114.38186 170.30684,114.99608 169.03527,114.99608 168.61569,114.99608 168.49907,114.9641 168.44151,114.92167 168.38395,114.87923 168.25211,114.69107 168.03895,114.21835 167.36867,112.73194 165.94938,111.49734 163.97667,110.57206 162.69071,109.9689 161.9625,109.83857 159.9118,109.85324 Z M 167.13151,132.22293 C 166.70416,132.2263 166.3414,132.23373 166.02925,132.24567 164.78067,132.29342 164.25784,132.44348 163.78495,132.69112 163.14292,133.02734 162.62334,133.56055 162.21295,134.33547 161.80256,135.11039 161.47554,136.13031 161.13291,137.54458 160.69867,139.33692 160.31381,143.24232 159.98053,146.51147 159.61202,142.60137 159.17754,139.54549 158.64056,137.34355 158.09431,135.10361 157.49355,133.67942 156.55283,132.98206 156.36005,132.83916 156.12704,132.6859 155.80662,132.58984 155.48621,132.49377 155.09388,132.44289 154.48215,132.41 153.25867,132.34424 151.13179,132.356 146.9901,132.38468 144.40959,132.40255 142.52993,132.38911 141.1424,132.43533 139.75487,132.48154 138.85822,132.5687 138.18547,132.88853 137.51272,133.20837 137.16918,133.85353 137.08218,134.57783 136.99519,135.30213 137.05841,136.1759 137.05841,137.37094 137.05841,138.36481 137.09,139.25669 137.14471,139.95476 137.17207,140.30379 137.20348,140.60436 137.24393,140.85135 137.28439,141.09833 137.31288,141.27292 137.41963,141.47612 137.82379,142.24549 138.74044,143.6673 139.60141,144.9312 140.03189,145.56316 140.44388,146.15 140.76929,146.58588 140.93201,146.80382 141.07319,146.98266 141.18943,147.11867 141.24753,147.18668 141.2977,147.24225 141.35531,147.29644 141.38412,147.32352 141.41269,147.35024 141.46073,147.38273 141.50877,147.41523 141.56103,147.48195 141.76923,147.48195 141.99519,147.48195 142.07879,147.40851 142.1718,147.35121 142.26479,147.2939 142.34852,147.22828 142.43534,147.15226 142.60897,147.00021 142.78952,146.80888 142.95883,146.59364 143.22667,146.25314 143.42403,145.85775 143.51176,145.30844 143.5995,144.75912 143.61512,144.04026 143.61512,142.85123 143.61512,141.55885 143.63194,140.86733 143.69522,140.55059 143.75849,140.23386 143.74425,140.2998 144.01768,140.12064 144.51057,139.79769 145.24193,140.07001 145.38297,140.59555 145.36954,140.54552 145.38938,140.63548 145.39847,140.74386 145.40756,140.85225 145.41685,141.00469 145.42586,141.18931 145.44389,141.55854 145.46025,142.06219 145.47444,142.66209 145.50283,143.86189 145.52183,145.44493 145.52353,147.11505 L 145.53128,153.37462 146.51933,154.61692 C 147.38556,155.70637 148.34494,156.79409 149.14449,157.6188 149.54427,158.03116 149.90316,158.37706 150.19921,158.63063 150.34724,158.75742 150.47722,158.86052 150.60332,158.94327 150.72942,159.02603 150.80825,159.12258 151.0958,159.12258 151.37574,159.12258 151.72574,159.06486 151.98618,158.81408 152.24663,158.56329 152.35896,158.22747 152.43732,157.79088 152.59406,156.91772 152.61311,155.50683 152.61508,152.9488 152.61644,151.19533 152.64142,149.88994 152.69518,148.98005 152.74893,148.07016 152.88135,147.5042 152.89827,147.47058 153.15545,146.95966 153.97433,146.81767 154.44339,147.24217 154.52988,147.32043 154.5352,147.31215 154.58189,147.46077 154.62859,147.60938 154.68021,147.91291 154.71263,148.44727 154.77747,149.51599 154.78498,151.49663 154.78498,155.20655 V 163.33938 L 157.17191,165.08966 C 157.77402,165.53107 158.33192,165.9312 158.74597,166.22448 158.95301,166.37112 159.12374,166.49046 159.24982,166.57588 159.31286,166.6186 159.36416,166.65382 159.40795,166.6813 159.42984,166.69505 159.44934,166.70666 159.47461,166.72057 159.48725,166.72752 159.49895,166.73509 159.52319,166.74589 159.53531,166.75128 159.55012,166.75753 159.57435,166.76553 159.58647,166.76953 159.6009,166.7744 159.62086,166.77897 159.64081,166.78353 159.70473,166.79083 159.70509,166.79085 160.03985,166.81116 160.12339,166.70749 160.32004,166.6074 160.51668,166.50732 160.74909,166.37084 161.02129,166.19709 161.56568,165.84958 162.26553,165.35699 163.06044,164.75945 L 165.04481,163.26755 V 155.21843 C 165.04481,151.77696 165.05947,149.81179 165.11923,148.68136 165.14912,148.11615 165.19286,147.76095 165.24015,147.5543 165.28744,147.34765 165.31615,147.31219 165.35332,147.27111 165.69752,146.89078 166.34008,146.875 166.68761,147.22254 166.72309,147.25802 166.82309,147.42357 166.88088,148.20852 166.93867,148.99347 166.95684,150.31604 166.95684,152.51524 166.95684,154.93077 166.96419,156.24521 167.03694,157.05811 167.07332,157.46455 167.12369,157.75208 167.22246,158.00172 167.32123,158.25137 167.48401,158.44723 167.6307,158.57998 167.82061,158.75184 168.03429,158.88059 168.25599,158.97066 168.4777,159.06072 168.69719,159.13242 168.98824,159.06832 169.18236,159.02558 169.22319,158.96994 169.30089,158.91381 169.3786,158.85767 169.45773,158.79285 169.54687,158.71434 169.72515,158.5573 169.94082,158.34835 170.18765,158.09732 170.68136,157.59529 171.29766,156.92339 171.92553,156.19512 L 174.30678,153.43508 174.31453,146.87476 C 174.31896,143.51685 174.34351,141.74638 174.49023,140.87305 174.56358,140.43639 174.65792,140.2574 174.73621,140.1718 174.8145,140.0862 174.93372,140.0273 175.21112,139.93926 175.35543,139.89345 175.39597,139.89639 175.48811,139.93151 175.58026,139.96664 175.73778,140.07162 175.96095,140.2948 176.25895,140.59279 176.32127,140.6442 176.39244,141.01155 176.46361,141.3789 176.48029,142.07729 176.48029,143.37884 176.48029,144.46909 176.50279,145.19542 176.57228,145.72805 176.64176,146.26068 176.7709,146.64757 177.04305,146.91971 177.18471,147.06137 177.33704,147.18326 177.49005,147.28093 177.64306,147.37861 177.74319,147.48195 178.04867,147.48195 178.25439,147.48195 178.30792,147.41719 178.35718,147.38428 178.40643,147.35137 178.43844,147.32314 178.4688,147.29488 178.52953,147.23838 178.58252,147.17918 178.6445,147.1073 178.76848,146.96356 178.9176,146.77503 179.08789,146.54867 179.42849,146.09599 179.85089,145.49633 180.26766,144.88625 180.68443,144.27617 181.09389,143.65723 181.40247,143.15974 181.55675,142.91098 181.68542,142.69246 181.78126,142.51533 181.82919,142.42676 181.86926,142.3488 181.90219,142.27297 181.92728,142.21516 181.95858,142.18242 181.97195,142.07866 181.97282,142.06664 181.9778,142.04042 181.99623,142.01562 182.0405,141.95606 182.11809,141.87445 182.19519,141.81046 182.52765,141.53455 182.62772,141.12026 182.69128,140.486 182.75484,139.85174 182.77345,138.92132 182.77345,137.46448 182.77345,135.84635 182.76236,134.92648 182.6856,134.3024 182.60884,133.6783 182.38964,133.2668 182.10527,133.00945 181.93047,132.85126 181.68067,132.72537 181.36113,132.64823 181.04159,132.57109 180.62995,132.52241 180.01341,132.48028 178.78034,132.39603 176.72666,132.34782 173.11306,132.28701 170.27816,132.23932 168.41356,132.21285 167.13151,132.22293 Z" />
      <path
         id="path905"
         d="M 157.70753,167.62043 C 153.14965,164.54953 148.70338,160.18746 143.95901,154.13227 141.40966,150.87856 136.23496,143.50261 136.23496,143.1225 136.23496,143.03534 135.99684,142.6613 135.7058,142.2913 135.24217,141.70189 135.17663,141.21794 135.17663,138.38389 135.17663,133.57865 135.33257,132.80275 136.54122,131.5941 137.78434,130.35097 137.91474,129.27034 136.88794,128.72081 135.9099,128.19739 134.54313,126.407 133.96267,124.8889 133.2969,123.14769 133.2977,119.27475 133.96422,117.43544 134.3483,116.37552 135.58184,113.7659 135.86412,113.41607 135.90661,113.36341 136.45392,113.73554 137.08036,114.24302 138.25635,115.19569 139.70413,116.02535 140.19057,116.02535 140.34332,116.02535 140.47352,115.75746 140.47991,115.43004 140.51016,113.87922 142.0267,111.35564 143.60287,110.23331 L 144.31967,109.7229 145.37055,110.66377 C 146.43828,111.61973 149.26283,113.11435 150.0024,113.11473 150.22568,113.11484 150.61656,112.76251 150.871,112.33176 151.98036,110.45378 155.1657,108.60843 158.19773,108.08721 161.6554,107.49282 166.05162,108.96097 168.23227,111.43831 168.82386,112.11039 169.30788,112.77745 169.30788,112.92068 169.30788,113.69155 172.74269,112.19644 174.47516,110.67145 L 175.6915,109.60079 176.75475,110.63026 C 178.00296,111.83881 178.92173,113.33284 179.38102,114.90087 179.56218,115.51934 179.81298,116.02535 179.93835,116.02535 180.29444,116.02535 182.32654,114.7116 183.1296,113.96221 183.52827,113.59019 183.90054,113.33666 183.95688,113.39881 184.59245,114.1 185.83534,116.92172 186.13096,118.33465 187.0603,122.77642 186.10064,126.26668 183.34004,128.48516 181.99802,129.56364 181.91019,130.47466 183.06587,131.32909 184.39486,132.31166 184.65372,133.35159 184.65372,137.70814 184.65372,142.13476 185.10547,140.93882 181.1453,146.99605 176.94422,153.42175 170.20501,161.29826 165.90781,164.805 163.72825,166.58363 160.31468,168.94415 159.93421,168.9358 159.77822,168.93238 158.77621,168.34046 157.70753,167.62043 Z M 160.39559,165.99932 C 160.71344,165.83604 161.77718,165.09832 162.75944,164.35995 L 164.54538,163.01745 V 155.2188 C 164.54538,148.33337 164.59666,147.36349 164.98326,146.93629 165.52065,146.34248 166.48246,146.31065 167.04002,146.86821 167.38996,147.21815 167.4558,148.11238 167.4558,152.51575 167.4558,157.3441 167.49508,157.78306 167.96528,158.20858 168.24549,158.46217 168.6573,158.62945 168.8804,158.58032 169.1035,158.53118 170.30298,157.31141 171.54592,155.86972 L 173.8058,153.24846 173.81421,146.87389 C 173.82308,140.15547 173.87634,139.83847 175.05918,139.46305 175.49695,139.32411 175.82079,139.44754 176.31493,139.94169 176.9416,140.56835 176.9808,140.77069 176.9808,143.3788 176.9808,145.54535 177.07152,146.24078 177.39657,146.56583 177.62525,146.79451 177.91834,146.9816 178.04788,146.9816 178.29314,146.9816 181.47871,142.31844 181.47871,141.95942 181.47871,141.84684 181.65731,141.60651 181.87559,141.42535 182.19309,141.16186 182.27247,140.36978 182.27247,137.46521 182.27247,134.23468 182.21707,133.78432 181.76996,133.37969 181.32519,132.97718 180.32969,132.90915 173.10486,132.78759 165.54676,132.66042 164.87368,132.68616 164.01621,133.1352 162.90607,133.71656 162.29549,134.86949 161.61902,137.66171 161.03605,140.06797 160.06099,147.65921 160.01606,150.14144 159.99612,151.24256 159.80958,149.99151 159.50543,146.71702 158.76313,138.72507 157.72668,134.47502 156.25374,133.38313 155.52272,132.84122 155.27609,132.82797 146.99332,132.88532 136.65768,132.95689 137.55788,132.52892 137.55788,137.37102 137.55788,139.33803 137.68026,140.89935 137.86147,141.24431 138.61276,142.67449 141.54673,146.9816 141.76967,146.9816 141.90591,146.9816 142.26416,146.66789 142.56576,146.28446 143.04024,145.68126 143.11413,145.21864 143.11413,142.85098 143.11413,140.26188 143.14797,140.09246 143.74309,139.70253 144.51957,139.19376 145.63225,139.59357 145.86622,140.46542 145.94932,140.7751 146.0201,143.76692 146.0235,147.1139 L 146.02968,153.19931 146.90968,154.30609 C 148.61981,156.45692 150.72006,158.62327 151.09513,158.62327 152.00834,158.62327 152.10991,158.05741 152.11386,152.94796 152.11659,149.4315 152.21843,147.70767 152.45072,147.24619 152.86716,146.4189 154.06638,146.2254 154.7792,146.87049 155.25559,147.30162 155.28496,147.78572 155.28496,155.20689 V 163.08557 L 157.46778,164.68581 C 158.66832,165.56594 159.68818,166.28833 159.73413,166.29112 159.78008,166.29391 160.07773,166.1626 160.39559,165.99932 Z M 160.71308,135.91799 C 161.55408,133.36729 162.5754,132.10467 164.1516,131.66709 164.80588,131.48545 167.99664,131.37358 172.54903,131.37266 L 179.89121,131.37119 V 129.4045 127.43781 L 171.97777,127.35398 164.06433,127.27015 163.04809,126.44785 C 162.45219,125.96568 161.58828,124.79354 160.95947,123.61404 L 159.8871,121.60252 159.14483,123.16547 C 158.04237,125.48683 156.85641,126.74787 155.44038,127.10443 154.70786,127.28888 151.52896,127.40244 147.09801,127.40244 H 139.93913 V 129.38681 131.37119 L 147.28132,131.37266 C 151.51532,131.37351 155.04005,131.48982 155.60748,131.64741 157.52917,132.18112 158.52482,133.58769 159.50365,137.15163 159.6774,137.78426 159.85738,138.26051 159.90362,138.20997 159.94985,138.15942 160.31411,137.12803 160.71308,135.91799 Z M 183.48776,124.43467 C 184.25896,122.92329 184.35364,120.23155 183.7028,118.32144 183.47084,117.64068 183.24371,117.08369 183.19805,117.08369 183.1524,117.08369 182.52186,117.39144 181.79685,117.76759 181.01075,118.17544 179.841,118.50932 178.89895,118.59474 L 177.31926,118.73798 177.18809,116.78636 C 177.09576,115.41276 176.88117,114.54086 176.46355,113.84254 176.13721,113.29684 175.83685,112.85035 175.79609,112.85035 175.75534,112.85035 175.02296,113.2713 174.16858,113.78578 172.40514,114.84768 170.4589,115.49619 169.03546,115.49619 168.15761,115.49619 168.01938,115.39428 167.58221,114.42482 166.9789,113.08691 165.66433,111.91649 163.7637,111.02502 162.51039,110.43717 161.94917,110.3393 159.91517,110.35385 157.93492,110.36801 157.28053,110.48685 156.02916,111.05955 154.29103,111.85503 152.86932,113.20915 152.21486,114.6925 151.79842,115.63638 151.68363,115.71791 150.94138,115.59693 148.26929,115.16139 146.43205,114.4642 144.99153,113.3391 144.40156,112.87831 144.32073,112.87361 143.87797,113.27429 143.2489,113.8436 142.5065,116.1216 142.47655,117.57448 L 142.45267,118.73252 140.95845,118.59711 C 140.11087,118.5203 138.86106,118.15875 138.07047,117.76166 137.08496,117.26667 136.62151,117.15093 136.48825,117.36655 136.3846,117.53426 136.14955,118.54977 135.96593,119.62322 135.50406,122.32336 135.93064,124.34562 137.28371,125.87034 138.28242,126.99574 138.30305,126.99863 139.67455,126.20534 140.20911,125.89614 141.79145,125.82199 147.92248,125.81884 L 155.50895,125.81494 156.26043,125.18261 C 157.21481,124.37954 158.78874,120.97917 159.57981,118.01126 L 159.93202,116.68987 160.5521,118.80501 C 161.28344,121.2996 162.78715,124.51984 163.5386,125.20069 164.02127,125.63802 164.81462,125.6949 172.10631,125.81494 179.98702,125.94468 180.15351,125.95865 180.73342,126.53905 L 181.32475,127.13088 182.08786,126.40676 C 182.50757,126.0085 183.13753,125.12106 183.48776,124.43467 Z"
         style="fill:#1e1c1b;stroke-width:1" />
    </g>
    <g
       inkscape:export-ydpi="29.99"
       inkscape:export-xdpi="29.99"
       id="g1088">
      <rect
         y="117.67577"
         x="85.916801"
         height="23.758009"
         width="41.720772"
         id="rect970-1"
         style="fill:#ffffff;fill-opacity:1;stroke:none;stroke-width:46.302;stroke-linecap:round;stroke-linejoin:round;stroke-opacity:1" />
      <path
         d="M 106.90044,109.85324 C 104.90098,109.86754 104.09832,110.01587 102.81077,110.60514 100.9712,111.44703 99.463455,112.86496 98.746415,114.49017 98.542895,114.95145 98.405565,115.13319 98.400705,115.13664 98.398275,115.13837 98.417335,115.13779 98.361425,115.14026 98.305515,115.14273 98.184765,115.13153 98.010025,115.10305 95.385635,114.67528 93.644335,114.00488 92.287375,112.94504 91.984315,112.70834 91.783115,112.50656 91.396995,112.48409 91.203925,112.47285 91.015945,112.54296 90.883335,112.62465 90.750735,112.70635 90.648075,112.79864 90.531415,112.90422 90.043435,113.34585 89.747445,114.07626 89.466885,114.93717 89.186315,115.79808 88.981715,116.75823 88.965105,117.5644 L 88.953215,118.18555 87.992555,118.09925 C 87.241425,118.03118 85.994175,117.67115 85.283675,117.31429 84.776795,117.0597 84.400615,116.89435 84.070825,116.81199 83.905935,116.77082 83.748015,116.74577 83.566465,116.77323 83.384915,116.80069 83.163225,116.92227 83.051255,117.10344 82.951135,117.26544 82.940325,117.35015 82.896735,117.4998 82.853145,117.64947 82.806995,117.8323 82.758245,118.04292 82.660755,118.46416 82.554475,118.99311 82.461105,119.53896 81.983615,122.33042 82.434625,124.55276 83.898745,126.20263 84.148915,126.48454 84.340925,126.70413 84.541085,126.88269 84.741235,127.06126 84.975335,127.212 85.258355,127.25166 85.541375,127.29131 85.804385,127.21505 86.055205,127.10335 86.306025,126.99165 86.571135,126.83692 86.914585,126.63826 87.011775,126.58205 87.503865,126.4531 88.713435,126.39642 89.923015,126.33974 91.849025,126.31945 94.912545,126.31787 L 102.68003,126.31425 103.57041,125.56443 C 104.21002,125.02623 104.79968,123.9678 105.42405,122.61887 106.0005,121.3735 106.52616,119.89692 106.92628,118.48424 L 107.06063,118.94519 C 107.43599,120.22553 108.00304,121.66997 108.57476,122.89431 108.86061,123.50649 109.14685,124.06321 109.41656,124.51953 109.68628,124.97586 109.92001,125.326 110.19171,125.57218 110.35889,125.72365 110.60171,125.86303 110.91415,125.94683 111.2266,126.03062 111.62382,126.08164 112.22312,126.1246 113.42171,126.21053 115.4394,126.25421 119.08625,126.31425 123.02639,126.37911 125.04667,126.41655 126.10599,126.50546 126.63565,126.54992 126.91694,126.61091 127.05891,126.66565 127.20084,126.72039 127.23225,126.75516 127.36947,126.89251 L 128.30481,127.82786 129.41999,126.76952 C 130.86195,125.40126 131.61366,123.52914 131.61366,121.37295 131.61366,120.56058 131.4577,119.47873 131.26019,118.56434 131.16143,118.10714 131.05208,117.69736 130.93773,117.37682 130.88056,117.21653 130.82536,117.07991 130.74859,116.951 130.7102,116.88655 130.6689,116.82217 130.59408,116.75153 130.51926,116.68088 130.38933,116.58358 130.1879,116.58358 130.0446,116.58358 130.04285,116.60295 130.01789,116.61097 129.99293,116.61899 129.97733,116.62558 129.95949,116.63267 129.92379,116.64686 129.88669,116.66208 129.84425,116.68125 129.75938,116.7196 129.65142,116.77249 129.52179,116.83576 129.26251,116.96231 128.92055,117.13441 128.55493,117.3241 127.84981,117.68994 126.70434,118.01898 125.84193,118.09718 L 124.7717,118.1933 124.67611,116.75153 C 124.58126,115.34033 124.35431,114.37674 123.88132,113.58583 123.71429,113.30654 123.55428,113.05351 123.42604,112.86288 123.36193,112.76757 123.30723,112.68874 123.25603,112.62258 123.23044,112.5895 123.20722,112.55971 123.17231,112.52336 123.15485,112.50519 123.13564,112.48668 123.09583,112.4567 123.07593,112.44171 123.05158,112.42309 123.00798,112.40192 122.9862,112.39133 122.96,112.37901 122.92426,112.36885 122.88852,112.3587 122.78589,112.34921 122.78526,112.34921 122.78462,112.34921 122.70218,112.35641 122.67985,112.3611 122.6575,112.36579 122.64347,112.37073 122.63127,112.37454 122.60683,112.38215 122.59318,112.38696 122.58062,112.3921 122.55553,112.40242 122.5381,112.41047 122.51964,112.41949 122.48274,112.43754 122.44182,112.45851 122.39459,112.48409 122.30011,112.53524 122.17732,112.6053 122.02768,112.69131 121.72839,112.86333 121.3282,113.0987 120.89855,113.35742 119.19733,114.38186 117.29549,114.99608 116.02391,114.99608 115.60433,114.99608 115.48772,114.9641 115.43016,114.92167 115.37259,114.87923 115.24076,114.69107 115.02759,114.21835 114.35732,112.73194 112.93803,111.49734 110.96532,110.57206 109.67935,109.9689 108.95114,109.83857 106.90044,109.85324 Z M 114.12016,132.22293 C 113.6928,132.2263 113.33005,132.23373 113.0179,132.24567 111.76932,132.29342 111.24649,132.44348 110.7736,132.69112 110.13156,133.02734 109.61199,133.56055 109.20159,134.33547 108.7912,135.11039 108.46418,136.13031 108.12156,137.54458 107.68732,139.33692 107.30246,143.24232 106.96918,146.51147 106.60066,142.60137 106.16619,139.54549 105.62921,137.34355 105.08295,135.10361 104.48219,133.67942 103.54147,132.98206 103.34869,132.83916 103.11569,132.6859 102.79527,132.58984 102.47485,132.49377 102.08253,132.44289 101.4708,132.41 100.24731,132.34424 98.120435,132.356 93.978745,132.38468 91.398235,132.40255 89.518575,132.38911 88.131045,132.43533 86.743515,132.48154 85.846865,132.5687 85.174115,132.88853 84.501365,133.20837 84.157825,133.85353 84.070825,134.57783 83.983835,135.30213 84.047055,136.1759 84.047055,137.37094 84.047055,138.36481 84.078645,139.25669 84.133355,139.95476 84.160715,140.30379 84.192125,140.60436 84.232575,140.85135 84.273035,141.09833 84.301525,141.27292 84.408275,141.47612 84.812435,142.24549 85.729085,143.6673 86.590055,144.9312 87.020535,145.56316 87.432525,146.15 87.757935,146.58588 87.920655,146.80382 88.061835,146.98266 88.178075,147.11867 88.236175,147.18668 88.286345,147.24225 88.343955,147.29644 88.372765,147.32352 88.401335,147.35024 88.449375,147.38273 88.497415,147.41523 88.549675,147.48195 88.757875,147.48195 88.983835,147.48195 89.067435,147.40851 89.160445,147.35121 89.253435,147.2939 89.337165,147.22828 89.423985,147.15226 89.597615,147.00021 89.778165,146.80888 89.947475,146.59364 90.215315,146.25314 90.412675,145.85775 90.500405,145.30844 90.588145,144.75912 90.603765,144.04026 90.603765,142.85123 90.603765,141.55885 90.620585,140.86733 90.683865,140.55059 90.747135,140.23386 90.732895,140.2998 91.006325,140.12064 91.499215,139.79769 92.230575,140.07001 92.371615,140.59555 92.358185,140.54552 92.378025,140.63548 92.387115,140.74386 92.396205,140.85225 92.405495,141.00469 92.414505,141.18931 92.432535,141.55854 92.448895,142.06219 92.463085,142.66209 92.491475,143.86189 92.510475,145.44493 92.512175,147.11505 L 92.519925,153.37462 93.507975,154.61692 C 94.374205,155.70637 95.333585,156.79409 96.133135,157.6188 96.532915,158.03116 96.891805,158.37706 97.187855,158.63063 97.335885,158.75742 97.465865,158.86052 97.591965,158.94327 97.718065,159.02603 97.796895,159.12258 98.084445,159.12258 98.364385,159.12258 98.714385,159.06486 98.974825,158.81408 99.235275,158.56329 99.347605,158.22747 99.425965,157.79088 99.582705,156.91772 99.601755,155.50683 99.603725,152.9488 99.605085,151.19533 99.630065,149.88994 99.683825,148.98005 99.737575,148.07016 99.869995,147.5042 99.886915,147.47058 100.14409,146.95966 100.96298,146.81767 101.43204,147.24217 101.51853,147.32043 101.52384,147.31215 101.57054,147.46077 101.61723,147.60938 101.66886,147.91291 101.70128,148.44727 101.76612,149.51599 101.77363,151.49663 101.77363,155.20655 V 163.33938 L 104.16055,165.08966 C 104.76266,165.53107 105.32056,165.9312 105.73461,166.22448 105.94165,166.37112 106.11238,166.49046 106.23846,166.57588 106.3015,166.6186 106.3528,166.65382 106.39659,166.6813 106.41849,166.69505 106.43798,166.70666 106.46326,166.72057 106.4759,166.72752 106.4876,166.73509 106.51183,166.74589 106.52396,166.75128 106.53877,166.75753 106.563,166.76553 106.57512,166.76953 106.58954,166.7744 106.60951,166.77897 106.62946,166.78353 106.69338,166.79083 106.69374,166.79085 107.02849,166.81116 107.11203,166.70749 107.30868,166.6074 107.50533,166.50732 107.73773,166.37084 108.00994,166.19709 108.55433,165.84958 109.25418,165.35699 110.04908,164.75945 L 112.03346,163.26755 V 155.21843 C 112.03346,151.77696 112.04811,149.81179 112.10788,148.68136 112.13777,148.11615 112.1815,147.76095 112.22879,147.5543 112.27608,147.34765 112.3048,147.31219 112.34196,147.27111 112.68616,146.89078 113.32872,146.875 113.67625,147.22254 113.71174,147.25802 113.81174,147.42357 113.86953,148.20852 113.92731,148.99347 113.94548,150.31604 113.94548,152.51524 113.94548,154.93077 113.95283,156.24521 114.02559,157.05811 114.06196,157.46455 114.11234,157.75208 114.21111,158.00172 114.30988,158.25137 114.47266,158.44723 114.61935,158.57998 114.80926,158.75184 115.02293,158.88059 115.24463,158.97066 115.46634,159.06072 115.68583,159.13242 115.97689,159.06832 116.17101,159.02558 116.21184,158.96994 116.28954,158.91381 116.36724,158.85767 116.44637,158.79285 116.53552,158.71434 116.7138,158.5573 116.92946,158.34835 117.1763,158.09732 117.67001,157.59529 118.28631,156.92339 118.91418,156.19512 L 121.29542,153.43508 121.30318,146.87476 C 121.3076,143.51685 121.33216,141.74638 121.47887,140.87305 121.55222,140.43639 121.64657,140.2574 121.72485,140.1718 121.80315,140.0862 121.92237,140.0273 122.19977,139.93926 122.34408,139.89345 122.38461,139.89639 122.47675,139.93151 122.56891,139.96664 122.72643,140.07162 122.94959,140.2948 123.24759,140.59279 123.30991,140.6442 123.38109,141.01155 123.45226,141.3789 123.46893,142.07729 123.46893,143.37884 123.46893,144.46909 123.49143,145.19542 123.56092,145.72805 123.6304,146.26068 123.75955,146.64757 124.0317,146.91971 124.17335,147.06137 124.32568,147.18326 124.47869,147.28093 124.63171,147.37861 124.73183,147.48195 125.03732,147.48195 125.24303,147.48195 125.29656,147.41719 125.34582,147.38428 125.39507,147.35137 125.42709,147.32314 125.45745,147.29488 125.51818,147.23838 125.57117,147.17918 125.63315,147.1073 125.75713,146.96356 125.90625,146.77503 126.07654,146.54867 126.41714,146.09599 126.83954,145.49633 127.2563,144.88625 127.67308,144.27617 128.08253,143.65723 128.39112,143.15974 128.5454,142.91098 128.67407,142.69246 128.7699,142.51533 128.81783,142.42676 128.8579,142.3488 128.89083,142.27297 128.91592,142.21516 128.94722,142.18242 128.96059,142.07866 128.96146,142.06664 128.96644,142.04042 128.98487,142.01562 129.02914,141.95606 129.10673,141.87445 129.18383,141.81046 129.5163,141.53455 129.61636,141.12026 129.67992,140.486 129.74348,139.85174 129.76209,138.92132 129.76209,137.46448 129.76209,135.84635 129.751,134.92648 129.67425,134.3024 129.59748,133.6783 129.37828,133.2668 129.09391,133.00945 128.91911,132.85126 128.66931,132.72537 128.34977,132.64823 128.03023,132.57109 127.6186,132.52241 127.00206,132.48028 125.76898,132.39603 123.71531,132.34782 120.10171,132.28701 117.26681,132.23932 115.40221,132.21285 114.12016,132.22293 Z"
         style="color:#000000;font-style:normal;font-variant:normal;font-weight:normal;font-stretch:normal;font-size:medium;line-height:normal;font-family:sans-serif;font-variant-ligatures:normal;font-variant-position:normal;font-variant-caps:normal;font-variant-numeric:normal;font-variant-alternates:normal;font-variant-east-asian:normal;font-feature-settings:normal;font-variation-settings:normal;text-indent:0;text-align:start;text-decoration:none;text-decoration-line:none;text-decoration-style:solid;text-decoration-color:#000000;letter-spacing:normal;word-spacing:normal;text-transform:none;writing-mode:lr-tb;direction:ltr;text-orientation:mixed;dominant-baseline:auto;baseline-shift:baseline;text-anchor:start;white-space:normal;shape-padding:0;shape-margin:0;inline-size:0;clip-rule:nonzero;display:inline;overflow:visible;visibility:visible;isolation:auto;mix-blend-mode:normal;color-interpolation:sRGB;color-interpolation-filters:linearRGB;solid-color:#000000;solid-opacity:1;vector-effect:none;fill:url(#linearGradient978-9);fill-opacity:1;fill-rule:nonzero;stroke:none;stroke-width:1;stroke-linecap:butt;stroke-linejoin:miter;stroke-miterlimit:4;stroke-dasharray:none;stroke-dashoffset:0;stroke-opacity:1;color-rendering:auto;image-rendering:auto;shape-rendering:auto;text-rendering:auto;enable-background:accumulate;stop-color:#000000"
         id="path963-0" />
      <path
         style="fill:#1e1c1b;stroke-width:1"
         d="M 104.69618,167.62043 C 100.1383,164.54953 95.692025,160.18746 90.947655,154.13227 88.398305,150.87856 83.223605,143.50261 83.223605,143.1225 83.223605,143.03534 82.985485,142.6613 82.694445,142.2913 82.230815,141.70189 82.165275,141.21794 82.165275,138.38389 82.165275,133.57865 82.321215,132.80275 83.529865,131.5941 84.772985,130.35097 84.903385,129.27034 83.876585,128.72081 82.898545,128.19739 81.531775,126.407 80.951315,124.8889 80.285545,123.14769 80.286345,119.27475 80.952865,117.43544 81.336945,116.37552 82.570485,113.7659 82.852765,113.41607 82.895255,113.36341 83.442565,113.73554 84.069005,114.24302 85.244995,115.19569 86.692775,116.02535 87.179215,116.02535 87.331965,116.02535 87.462165,115.75746 87.468555,115.43004 87.498805,113.87922 89.015345,111.35564 90.591515,110.23331 L 91.308315,109.7229 92.359195,110.66377 C 93.426925,111.61973 96.251475,113.11435 96.991045,113.11473 97.214325,113.11484 97.605205,112.76251 97.859645,112.33176 98.969005,110.45378 102.15435,108.60843 105.18637,108.08721 108.64405,107.49282 113.04027,108.96097 115.22091,111.43831 115.8125,112.11039 116.29653,112.77745 116.29653,112.92068 116.29653,113.69155 119.73134,112.19644 121.46381,110.67145 L 122.68015,109.60079 123.74339,110.63026 C 124.9916,111.83881 125.91037,113.33284 126.36966,114.90087 126.55083,115.51934 126.80163,116.02535 126.927,116.02535 127.28309,116.02535 129.31519,114.7116 130.11824,113.96221 130.51691,113.59019 130.88918,113.33666 130.94552,113.39881 131.58109,114.1 132.82398,116.92172 133.1196,118.33465 134.04894,122.77642 133.08928,126.26668 130.32868,128.48516 128.98666,129.56364 128.89883,130.47466 130.05451,131.32909 131.38351,132.31166 131.64236,133.35159 131.64236,137.70814 131.64236,142.13476 132.09411,140.93882 128.13394,146.99605 123.93286,153.42175 117.19366,161.29826 112.89646,164.805 110.71689,166.58363 107.30333,168.94415 106.92286,168.9358 106.76686,168.93238 105.76486,168.34046 104.69618,167.62043 Z M 107.38423,165.99932 C 107.70209,165.83604 108.76583,165.09832 109.74809,164.35995 L 111.53402,163.01745 V 155.2188 C 111.53402,148.33337 111.58531,147.36349 111.9719,146.93629 112.5093,146.34248 113.4711,146.31065 114.02866,146.86821 114.3786,147.21815 114.44445,148.11238 114.44445,152.51575 114.44445,157.3441 114.48372,157.78306 114.95392,158.20858 115.23414,158.46217 115.64595,158.62945 115.86905,158.58032 116.09214,158.53118 117.29163,157.31141 118.53456,155.86972 L 120.79444,153.24846 120.80285,146.87389 C 120.81172,140.15547 120.86498,139.83847 122.04782,139.46305 122.48559,139.32411 122.80944,139.44754 123.30357,139.94169 123.93025,140.56835 123.96945,140.77069 123.96945,143.3788 123.96945,145.54535 124.06017,146.24078 124.38521,146.56583 124.6139,146.79451 124.90698,146.9816 125.03653,146.9816 125.28179,146.9816 128.46735,142.31844 128.46735,141.95942 128.46735,141.84684 128.64595,141.60651 128.86423,141.42535 129.18173,141.16186 129.26111,140.36978 129.26111,137.46521 129.26111,134.23468 129.20571,133.78432 128.7586,133.37969 128.31383,132.97718 127.31833,132.90915 120.0935,132.78759 112.5354,132.66042 111.86233,132.68616 111.00485,133.1352 109.89471,133.71656 109.28413,134.86949 108.60766,137.66171 108.0247,140.06797 107.04963,147.65921 107.00471,150.14144 106.98477,151.24256 106.79823,149.99151 106.49408,146.71702 105.75178,138.72507 104.71533,134.47502 103.24239,133.38313 102.51137,132.84122 102.26474,132.82797 93.981965,132.88532 83.646325,132.95689 84.546525,132.52892 84.546525,137.37102 84.546525,139.33803 84.668905,140.89935 84.850115,141.24431 85.601405,142.67449 88.535375,146.9816 88.758315,146.9816 88.894555,146.9816 89.252805,146.66789 89.554405,146.28446 90.028885,145.68126 90.102775,145.21864 90.102775,142.85098 90.102775,140.26188 90.136615,140.09246 90.731735,139.70253 91.508215,139.19376 92.620895,139.59357 92.854865,140.46542 92.937965,140.7751 93.008745,143.76692 93.012145,147.1139 L 93.018325,153.19931 93.898325,154.30609 C 95.608455,156.45692 97.708705,158.62327 98.083775,158.62327 98.996985,158.62327 99.098555,158.05741 99.102505,152.94796 99.105235,149.4315 99.207075,147.70767 99.439365,147.24619 99.855805,146.4189 101.05503,146.2254 101.76784,146.87049 102.24424,147.30162 102.27361,147.78572 102.27361,155.20689 V 163.08557 L 104.45642,164.68581 C 105.65697,165.56594 106.67683,166.28833 106.72278,166.29112 106.76872,166.29391 107.06637,166.1626 107.38423,165.99932 Z M 107.70173,135.91799 C 108.54272,133.36729 109.56404,132.10467 111.14024,131.66709 111.79452,131.48545 114.98529,131.37358 119.53768,131.37266 L 126.87985,131.37119 V 129.4045 127.43781 L 118.96642,127.35398 111.05298,127.27015 110.03673,126.44785 C 109.44083,125.96568 108.57692,124.79354 107.94812,123.61404 L 106.87574,121.60252 106.13348,123.16547 C 105.03101,125.48683 103.84506,126.74787 102.42902,127.10443 101.69651,127.28888 98.517605,127.40244 94.086655,127.40244 H 86.927775 V 129.38681 131.37119 L 94.269965,131.37266 C 98.503965,131.37351 102.0287,131.48982 102.59613,131.64741 104.51782,132.18112 105.51346,133.58769 106.4923,137.15163 106.66604,137.78426 106.84602,138.26051 106.89227,138.20997 106.93849,138.15942 107.30275,137.12803 107.70173,135.91799 Z M 130.4764,124.43467 C 131.2476,122.92329 131.34228,120.23155 130.69144,118.32144 130.45948,117.64068 130.23235,117.08369 130.18669,117.08369 130.14104,117.08369 129.5105,117.39144 128.78549,117.76759 127.99939,118.17544 126.82965,118.50932 125.8876,118.59474 L 124.30791,118.73798 124.17674,116.78636 C 124.08441,115.41276 123.86981,114.54086 123.45219,113.84254 123.12586,113.29684 122.82549,112.85035 122.78474,112.85035 122.74399,112.85035 122.01161,113.2713 121.15723,113.78578 119.39379,114.84768 117.44754,115.49619 116.0241,115.49619 115.14625,115.49619 115.00803,115.39428 114.57085,114.42482 113.96755,113.08691 112.65297,111.91649 110.75234,111.02502 109.49903,110.43717 108.93782,110.3393 106.90382,110.35385 104.92356,110.36801 104.26917,110.48685 103.01781,111.05955 101.27967,111.85503 99.857965,113.20915 99.203505,114.6925 98.787065,115.63638 98.672275,115.71791 97.930025,115.59693 95.257935,115.16139 93.420695,114.4642 91.980175,113.3391 91.390205,112.87831 91.309375,112.87361 90.866615,113.27429 90.237545,113.8436 89.495145,116.1216 89.465195,117.57448 L 89.441315,118.73252 87.947095,118.59711 C 87.099515,118.5203 85.849705,118.15875 85.059115,117.76166 84.073605,117.26667 83.610155,117.15093 83.476895,117.36655 83.373245,117.53426 83.138195,118.54977 82.954575,119.62322 82.492705,122.32336 82.919285,124.34562 84.272355,125.87034 85.271065,126.99574 85.291695,126.99863 86.663195,126.20534 87.197755,125.89614 88.780095,125.82199 94.911125,125.81884 L 102.49759,125.81494 103.24908,125.18261 C 104.20345,124.37954 105.77739,120.97917 106.56846,118.01126 L 106.92066,116.68987 107.54074,118.80501 C 108.27209,121.2996 109.77579,124.51984 110.52724,125.20069 111.00992,125.63802 111.80327,125.6949 119.09496,125.81494 126.97566,125.94468 127.14216,125.95865 127.72206,126.53905 L 128.31339,127.13088 129.0765,126.40676 C 129.49621,126.0085 130.12617,125.12106 130.4764,124.43467 Z"
         id="path905-3" />
    </g>
    <g
       inkscape:export-ydpi="29.99"
       inkscape:export-xdpi="29.99"
       id="g1104">
      <rect
         y="117.67577"
         x="32.905445"
         height="23.758009"
         width="41.720772"
         id="rect970-16"
         style="fill:#ffffff;fill-opacity:1;stroke:none;stroke-width:46.302;stroke-linecap:round;stroke-linejoin:round;stroke-opacity:1" />
      <path
         d="M 53.88909,109.85324 C 51.88963,109.86754 51.08696,110.01587 49.79941,110.60514 47.95985,111.44703 46.4521,112.86496 45.73506,114.49017 45.53154,114.95145 45.39421,115.13319 45.38935,115.13664 45.38692,115.13837 45.40598,115.13779 45.35007,115.14026 45.29416,115.14273 45.17341,115.13153 44.99867,115.10305 42.37428,114.67528 40.63298,114.00488 39.27602,112.94504 38.97296,112.70834 38.77176,112.50656 38.38564,112.48409 38.19257,112.47285 38.00459,112.54296 37.87198,112.62465 37.73938,112.70635 37.63672,112.79864 37.52006,112.90422 37.03208,113.34585 36.73609,114.07626 36.45553,114.93717 36.17496,115.79808 35.97036,116.75823 35.95375,117.5644 L 35.94186,118.18555 34.9812,118.09925 C 34.23007,118.03118 32.98282,117.67115 32.27232,117.31429 31.76544,117.0597 31.38926,116.89435 31.05947,116.81199 30.89458,116.77082 30.73666,116.74577 30.55511,116.77323 30.37356,116.80069 30.15187,116.92227 30.0399,117.10344 29.93978,117.26544 29.92897,117.35015 29.88538,117.4998 29.84179,117.64947 29.79564,117.8323 29.74689,118.04292 29.6494,118.46416 29.54312,118.99311 29.44975,119.53896 28.97226,122.33042 29.42327,124.55276 30.88739,126.20263 31.13756,126.48454 31.32957,126.70413 31.52973,126.88269 31.72988,127.06126 31.96398,127.212 32.247,127.25166 32.53002,127.29131 32.79303,127.21505 33.04385,127.10335 33.29467,126.99165 33.55978,126.83692 33.90323,126.63826 34.00042,126.58205 34.49251,126.4531 35.70208,126.39642 36.91166,126.33974 38.83767,126.31945 41.90119,126.31787 L 49.66867,126.31425 50.55906,125.56443 C 51.19866,125.02623 51.78832,123.9678 52.41269,122.61887 52.98914,121.3735 53.51481,119.89692 53.91492,118.48424 L 54.04928,118.94519 C 54.42464,120.22553 54.99168,121.66997 55.5634,122.89431 55.84926,123.50649 56.13549,124.06321 56.40521,124.51953 56.67493,124.97586 56.90865,125.326 57.18036,125.57218 57.34754,125.72365 57.59035,125.86303 57.9028,125.94683 58.21524,126.03062 58.61246,126.08164 59.21176,126.1246 60.41035,126.21053 62.42805,126.25421 66.0749,126.31425 70.01503,126.37911 72.03532,126.41655 73.09463,126.50546 73.62429,126.54992 73.90559,126.61091 74.04755,126.66565 74.18948,126.72039 74.22089,126.75516 74.35812,126.89251 L 75.29346,127.82786 76.40864,126.76952 C 77.8506,125.40126 78.60231,123.52914 78.60231,121.37295 78.60231,120.56058 78.44635,119.47873 78.24884,118.56434 78.15008,118.10714 78.04073,117.69736 77.92638,117.37682 77.86921,117.21653 77.81401,117.07991 77.73724,116.951 77.69885,116.88655 77.65755,116.82217 77.58273,116.75153 77.50791,116.68088 77.37797,116.58358 77.17655,116.58358 77.03325,116.58358 77.0315,116.60295 77.00654,116.61097 76.98158,116.61899 76.96598,116.62558 76.94814,116.63267 76.91244,116.64686 76.87534,116.66208 76.8329,116.68125 76.74803,116.7196 76.64007,116.77249 76.51044,116.83576 76.25116,116.96231 75.9092,117.13441 75.54358,117.3241 74.83845,117.68994 73.69299,118.01898 72.83057,118.09718 L 71.76035,118.1933 71.66475,116.75153 C 71.5699,115.34033 71.34295,114.37674 70.86996,113.58583 70.70294,113.30654 70.54293,113.05351 70.41469,112.86288 70.35058,112.76757 70.29588,112.68874 70.24468,112.62258 70.21908,112.5895 70.19587,112.55971 70.16096,112.52336 70.1435,112.50519 70.12428,112.48668 70.08448,112.4567 70.06457,112.44171 70.04023,112.42309 69.99663,112.40192 69.97484,112.39133 69.94865,112.37901 69.91291,112.36885 69.87717,112.3587 69.77453,112.34921 69.7739,112.34921 69.77326,112.34921 69.69082,112.35641 69.66849,112.3611 69.64614,112.36579 69.63212,112.37073 69.61991,112.37454 69.59548,112.38215 69.58182,112.38696 69.56927,112.3921 69.54418,112.40242 69.52674,112.41047 69.50829,112.41949 69.47139,112.43754 69.43047,112.45851 69.38323,112.48409 69.28875,112.53524 69.16597,112.6053 69.01633,112.69131 68.71703,112.86333 68.31685,113.0987 67.8872,113.35742 66.18597,114.38186 64.28413,114.99608 63.01256,114.99608 62.59298,114.99608 62.47636,114.9641 62.4188,114.92167 62.36124,114.87923 62.2294,114.69107 62.01624,114.21835 61.34596,112.73194 59.92667,111.49734 57.95396,110.57206 56.668,109.9689 55.93979,109.83857 53.88909,109.85324 Z M 61.1088,132.22293 C 60.68145,132.2263 60.31869,132.23373 60.00654,132.24567 58.75796,132.29342 58.23513,132.44348 57.76224,132.69112 57.12021,133.02734 56.60063,133.56055 56.19024,134.33547 55.77985,135.11039 55.45283,136.13031 55.1102,137.54458 54.67596,139.33692 54.2911,143.24232 53.95782,146.51147 53.58931,142.60137 53.15483,139.54549 52.61785,137.34355 52.0716,135.10361 51.47084,133.67942 50.53012,132.98206 50.33734,132.83916 50.10433,132.6859 49.78391,132.58984 49.4635,132.49377 49.07117,132.44289 48.45944,132.41 47.23596,132.34424 45.10908,132.356 40.96739,132.38468 38.38688,132.40255 36.50722,132.38911 35.11969,132.43533 33.73216,132.48154 32.83551,132.5687 32.16276,132.88853 31.49001,133.20837 31.14647,133.85353 31.05947,134.57783 30.97248,135.30213 31.0357,136.1759 31.0357,137.37094 31.0357,138.36481 31.06729,139.25669 31.122,139.95476 31.14936,140.30379 31.18077,140.60436 31.22122,140.85135 31.26168,141.09833 31.29017,141.27292 31.39692,141.47612 31.80108,142.24549 32.71773,143.6673 33.5787,144.9312 34.00918,145.56316 34.42117,146.15 34.74658,146.58588 34.9093,146.80382 35.05048,146.98266 35.16672,147.11867 35.22482,147.18668 35.27499,147.24225 35.3326,147.29644 35.36141,147.32352 35.38998,147.35024 35.43802,147.38273 35.48606,147.41523 35.53832,147.48195 35.74652,147.48195 35.97248,147.48195 36.05608,147.40851 36.14909,147.35121 36.24208,147.2939 36.32581,147.22828 36.41263,147.15226 36.58626,147.00021 36.76681,146.80888 36.93612,146.59364 37.20396,146.25314 37.40132,145.85775 37.48905,145.30844 37.57679,144.75912 37.59241,144.04026 37.59241,142.85123 37.59241,141.55885 37.60923,140.86733 37.67251,140.55059 37.73578,140.23386 37.72154,140.2998 37.99497,140.12064 38.48786,139.79769 39.21922,140.07001 39.36026,140.59555 39.34683,140.54552 39.36667,140.63548 39.37576,140.74386 39.38485,140.85225 39.39414,141.00469 39.40315,141.18931 39.42118,141.55854 39.43754,142.06219 39.45173,142.66209 39.48012,143.86189 39.49912,145.44493 39.50082,147.11505 L 39.50857,153.37462 40.49662,154.61692 C 41.36285,155.70637 42.32223,156.79409 43.12178,157.6188 43.52156,158.03116 43.88045,158.37706 44.1765,158.63063 44.32453,158.75742 44.45451,158.86052 44.58061,158.94327 44.70671,159.02603 44.78554,159.12258 45.07309,159.12258 45.35303,159.12258 45.70303,159.06486 45.96347,158.81408 46.22392,158.56329 46.33625,158.22747 46.41461,157.79088 46.57135,156.91772 46.5904,155.50683 46.59237,152.9488 46.59373,151.19533 46.61871,149.88994 46.67247,148.98005 46.72622,148.07016 46.85864,147.5042 46.87556,147.47058 47.13274,146.95966 47.95162,146.81767 48.42068,147.24217 48.50717,147.32043 48.51249,147.31215 48.55918,147.46077 48.60588,147.60938 48.6575,147.91291 48.68992,148.44727 48.75476,149.51599 48.76227,151.49663 48.76227,155.20655 V 163.33938 L 51.1492,165.08966 C 51.75131,165.53107 52.30921,165.9312 52.72326,166.22448 52.9303,166.37112 53.10103,166.49046 53.22711,166.57588 53.29015,166.6186 53.34145,166.65382 53.38524,166.6813 53.40713,166.69505 53.42663,166.70666 53.4519,166.72057 53.46454,166.72752 53.47624,166.73509 53.50048,166.74589 53.5126,166.75128 53.52741,166.75753 53.55164,166.76553 53.56376,166.76953 53.57819,166.7744 53.59815,166.77897 53.6181,166.78353 53.68202,166.79083 53.68238,166.79085 54.01714,166.81116 54.10068,166.70749 54.29733,166.6074 54.49397,166.50732 54.72638,166.37084 54.99858,166.19709 55.54297,165.84958 56.24282,165.35699 57.03773,164.75945 L 59.0221,163.26755 V 155.21843 C 59.0221,151.77696 59.03676,149.81179 59.09652,148.68136 59.12641,148.11615 59.17015,147.76095 59.21744,147.5543 59.26473,147.34765 59.29344,147.31219 59.33061,147.27111 59.67481,146.89078 60.31737,146.875 60.6649,147.22254 60.70038,147.25802 60.80038,147.42357 60.85817,148.20852 60.91596,148.99347 60.93413,150.31604 60.93413,152.51524 60.93413,154.93077 60.94148,156.24521 61.01423,157.05811 61.05061,157.46455 61.10098,157.75208 61.19975,158.00172 61.29852,158.25137 61.4613,158.44723 61.60799,158.57998 61.7979,158.75184 62.01158,158.88059 62.23328,158.97066 62.45499,159.06072 62.67448,159.13242 62.96553,159.06832 63.15965,159.02558 63.20048,158.96994 63.27818,158.91381 63.35589,158.85767 63.43502,158.79285 63.52416,158.71434 63.70244,158.5573 63.91811,158.34835 64.16494,158.09732 64.65865,157.59529 65.27495,156.92339 65.90282,156.19512 L 68.28407,153.43508 68.29182,146.87476 C 68.29625,143.51685 68.3208,141.74638 68.46752,140.87305 68.54087,140.43639 68.63521,140.2574 68.7135,140.1718 68.79179,140.0862 68.91101,140.0273 69.18841,139.93926 69.33272,139.89345 69.37326,139.89639 69.4654,139.93151 69.55755,139.96664 69.71507,140.07162 69.93824,140.2948 70.23624,140.59279 70.29856,140.6442 70.36973,141.01155 70.4409,141.3789 70.45758,142.07729 70.45758,143.37884 70.45758,144.46909 70.48008,145.19542 70.54957,145.72805 70.61905,146.26068 70.74819,146.64757 71.02034,146.91971 71.162,147.06137 71.31433,147.18326 71.46734,147.28093 71.62035,147.37861 71.72048,147.48195 72.02596,147.48195 72.23168,147.48195 72.28521,147.41719 72.33447,147.38428 72.38372,147.35137 72.41573,147.32314 72.44609,147.29488 72.50682,147.23838 72.55981,147.17918 72.62179,147.1073 72.74577,146.96356 72.89489,146.77503 73.06518,146.54867 73.40578,146.09599 73.82818,145.49633 74.24495,144.88625 74.66172,144.27617 75.07118,143.65723 75.37976,143.15974 75.53404,142.91098 75.66271,142.69246 75.75855,142.51533 75.80648,142.42676 75.84655,142.3488 75.87948,142.27297 75.90457,142.21516 75.93587,142.18242 75.94924,142.07866 75.95011,142.06664 75.95509,142.04042 75.97352,142.01562 76.01779,141.95606 76.09538,141.87445 76.17248,141.81046 76.50494,141.53455 76.60501,141.12026 76.66857,140.486 76.73213,139.85174 76.75074,138.92132 76.75074,137.46448 76.75074,135.84635 76.73965,134.92648 76.66289,134.3024 76.58613,133.6783 76.36693,133.2668 76.08256,133.00945 75.90776,132.85126 75.65796,132.72537 75.33842,132.64823 75.01888,132.57109 74.60724,132.52241 73.9907,132.48028 72.75763,132.39603 70.70395,132.34782 67.09035,132.28701 64.25545,132.23932 62.39085,132.21285 61.1088,132.22293 Z"
         style="color:#000000;font-style:normal;font-variant:normal;font-weight:normal;font-stretch:normal;font-size:medium;line-height:normal;font-family:sans-serif;font-variant-ligatures:normal;font-variant-position:normal;font-variant-caps:normal;font-variant-numeric:normal;font-variant-alternates:normal;font-variant-east-asian:normal;font-feature-settings:normal;font-variation-settings:normal;text-indent:0;text-align:start;text-decoration:none;text-decoration-line:none;text-decoration-style:solid;text-decoration-color:#000000;letter-spacing:normal;word-spacing:normal;text-transform:none;writing-mode:lr-tb;direction:ltr;text-orientation:mixed;dominant-baseline:auto;baseline-shift:baseline;text-anchor:start;white-space:normal;shape-padding:0;shape-margin:0;inline-size:0;clip-rule:nonzero;display:inline;overflow:visible;visibility:visible;isolation:auto;mix-blend-mode:normal;color-interpolation:sRGB;color-interpolation-filters:linearRGB;solid-color:#000000;solid-opacity:1;vector-effect:none;fill:url(#linearGradient978-5);fill-opacity:1;fill-rule:nonzero;stroke:none;stroke-width:1;stroke-linecap:butt;stroke-linejoin:miter;stroke-miterlimit:4;stroke-dasharray:none;stroke-dashoffset:0;stroke-opacity:1;color-rendering:auto;image-rendering:auto;shape-rendering:auto;text-rendering:auto;enable-background:accumulate;stop-color:#000000"
         id="path963-6" />
      <path
         style="fill:#1e1c1b;stroke-width:1"
         d="M 51.68482,167.62043 C 47.12694,164.54953 42.68067,160.18746 37.9363,154.13227 35.38695,150.87856 30.21225,143.50261 30.21225,143.1225 30.21225,143.03534 29.97413,142.6613 29.68309,142.2913 29.21946,141.70189 29.15392,141.21794 29.15392,138.38389 29.15392,133.57865 29.30986,132.80275 30.51851,131.5941 31.76163,130.35097 31.89203,129.27034 30.86523,128.72081 29.88719,128.19739 28.52042,126.407 27.93996,124.8889 27.27419,123.14769 27.27499,119.27475 27.94151,117.43544 28.32559,116.37552 29.55913,113.7659 29.84141,113.41607 29.8839,113.36341 30.43121,113.73554 31.05765,114.24302 32.23364,115.19569 33.68142,116.02535 34.16786,116.02535 34.32061,116.02535 34.45081,115.75746 34.4572,115.43004 34.48745,113.87922 36.00399,111.35564 37.58016,110.23331 L 38.29696,109.7229 39.34784,110.66377 C 40.41557,111.61973 43.24012,113.11435 43.97969,113.11473 44.20297,113.11484 44.59385,112.76251 44.84829,112.33176 45.95765,110.45378 49.14299,108.60843 52.17502,108.08721 55.63269,107.49282 60.02891,108.96097 62.20956,111.43831 62.80115,112.11039 63.28517,112.77745 63.28517,112.92068 63.28517,113.69155 66.71998,112.19644 68.45245,110.67145 L 69.66879,109.60079 70.73204,110.63026 C 71.98025,111.83881 72.89902,113.33284 73.35831,114.90087 73.53947,115.51934 73.79027,116.02535 73.91564,116.02535 74.27173,116.02535 76.30383,114.7116 77.10689,113.96221 77.50556,113.59019 77.87783,113.33666 77.93417,113.39881 78.56974,114.1 79.81263,116.92172 80.10825,118.33465 81.03759,122.77642 80.07793,126.26668 77.31733,128.48516 75.97531,129.56364 75.88748,130.47466 77.04316,131.32909 78.37215,132.31166 78.63101,133.35159 78.63101,137.70814 78.63101,142.13476 79.08276,140.93882 75.12259,146.99605 70.92151,153.42175 64.1823,161.29826 59.8851,164.805 57.70554,166.58363 54.29197,168.94415 53.9115,168.9358 53.75551,168.93238 52.7535,168.34046 51.68482,167.62043 Z M 54.37288,165.99932 C 54.69073,165.83604 55.75447,165.09832 56.73673,164.35995 L 58.52267,163.01745 V 155.2188 C 58.52267,148.33337 58.57395,147.36349 58.96055,146.93629 59.49794,146.34248 60.45975,146.31065 61.01731,146.86821 61.36725,147.21815 61.43309,148.11238 61.43309,152.51575 61.43309,157.3441 61.47237,157.78306 61.94257,158.20858 62.22278,158.46217 62.63459,158.62945 62.85769,158.58032 63.08079,158.53118 64.28027,157.31141 65.52321,155.86972 L 67.78309,153.24846 67.7915,146.87389 C 67.80037,140.15547 67.85363,139.83847 69.03647,139.46305 69.47424,139.32411 69.79808,139.44754 70.29222,139.94169 70.91889,140.56835 70.95809,140.77069 70.95809,143.3788 70.95809,145.54535 71.04881,146.24078 71.37386,146.56583 71.60254,146.79451 71.89563,146.9816 72.02517,146.9816 72.27043,146.9816 75.456,142.31844 75.456,141.95942 75.456,141.84684 75.6346,141.60651 75.85288,141.42535 76.17038,141.16186 76.24976,140.36978 76.24976,137.46521 76.24976,134.23468 76.19436,133.78432 75.74725,133.37969 75.30248,132.97718 74.30698,132.90915 67.08215,132.78759 59.52405,132.66042 58.85097,132.68616 57.9935,133.1352 56.88336,133.71656 56.27278,134.86949 55.59631,137.66171 55.01334,140.06797 54.03828,147.65921 53.99335,150.14144 53.97341,151.24256 53.78687,149.99151 53.48272,146.71702 52.74042,138.72507 51.70397,134.47502 50.23103,133.38313 49.50001,132.84122 49.25338,132.82797 40.97061,132.88532 30.63497,132.95689 31.53517,132.52892 31.53517,137.37102 31.53517,139.33803 31.65755,140.89935 31.83876,141.24431 32.59005,142.67449 35.52402,146.9816 35.74696,146.9816 35.8832,146.9816 36.24145,146.66789 36.54305,146.28446 37.01753,145.68126 37.09142,145.21864 37.09142,142.85098 37.09142,140.26188 37.12526,140.09246 37.72038,139.70253 38.49686,139.19376 39.60954,139.59357 39.84351,140.46542 39.92661,140.7751 39.99739,143.76692 40.00079,147.1139 L 40.00697,153.19931 40.88697,154.30609 C 42.5971,156.45692 44.69735,158.62327 45.07242,158.62327 45.98563,158.62327 46.0872,158.05741 46.09115,152.94796 46.09388,149.4315 46.19572,147.70767 46.42801,147.24619 46.84445,146.4189 48.04367,146.2254 48.75649,146.87049 49.23288,147.30162 49.26225,147.78572 49.26225,155.20689 V 163.08557 L 51.44507,164.68581 C 52.64561,165.56594 53.66547,166.28833 53.71142,166.29112 53.75737,166.29391 54.05502,166.1626 54.37288,165.99932 Z M 54.69037,135.91799 C 55.53137,133.36729 56.55269,132.10467 58.12889,131.66709 58.78317,131.48545 61.97393,131.37358 66.52632,131.37266 L 73.8685,131.37119 V 129.4045 127.43781 L 65.95506,127.35398 58.04162,127.27015 57.02538,126.44785 C 56.42948,125.96568 55.56557,124.79354 54.93676,123.61404 L 53.86439,121.60252 53.12212,123.16547 C 52.01966,125.48683 50.8337,126.74787 49.41767,127.10443 48.68515,127.28888 45.50625,127.40244 41.0753,127.40244 H 33.91642 V 129.38681 131.37119 L 41.25861,131.37266 C 45.49261,131.37351 49.01734,131.48982 49.58477,131.64741 51.50646,132.18112 52.50211,133.58769 53.48094,137.15163 53.65469,137.78426 53.83467,138.26051 53.88091,138.20997 53.92714,138.15942 54.2914,137.12803 54.69037,135.91799 Z M 77.46505,124.43467 C 78.23625,122.92329 78.33093,120.23155 77.68009,118.32144 77.44813,117.64068 77.221,117.08369 77.17534,117.08369 77.12969,117.08369 76.49915,117.39144 75.77414,117.76759 74.98804,118.17544 73.81829,118.50932 72.87624,118.59474 L 71.29655,118.73798 71.16538,116.78636 C 71.07305,115.41276 70.85846,114.54086 70.44084,113.84254 70.1145,113.29684 69.81414,112.85035 69.77338,112.85035 69.73263,112.85035 69.00025,113.2713 68.14587,113.78578 66.38243,114.84768 64.43619,115.49619 63.01275,115.49619 62.1349,115.49619 61.99667,115.39428 61.5595,114.42482 60.95619,113.08691 59.64162,111.91649 57.74099,111.02502 56.48768,110.43717 55.92646,110.3393 53.89246,110.35385 51.91221,110.36801 51.25782,110.48685 50.00645,111.05955 48.26832,111.85503 46.84661,113.20915 46.19215,114.6925 45.77571,115.63638 45.66092,115.71791 44.91867,115.59693 42.24658,115.16139 40.40934,114.4642 38.96882,113.3391 38.37885,112.87831 38.29802,112.87361 37.85526,113.27429 37.22619,113.8436 36.48379,116.1216 36.45384,117.57448 L 36.42996,118.73252 34.93574,118.59711 C 34.08816,118.5203 32.83835,118.15875 32.04776,117.76166 31.06225,117.26667 30.5988,117.15093 30.46554,117.36655 30.36189,117.53426 30.12684,118.54977 29.94322,119.62322 29.48135,122.32336 29.90793,124.34562 31.261,125.87034 32.25971,126.99574 32.28034,126.99863 33.65184,126.20534 34.1864,125.89614 35.76874,125.82199 41.89977,125.81884 L 49.48624,125.81494 50.23772,125.18261 C 51.1921,124.37954 52.76603,120.97917 53.5571,118.01126 L 53.90931,116.68987 54.52939,118.80501 C 55.26073,121.2996 56.76444,124.51984 57.51589,125.20069 57.99856,125.63802 58.79191,125.6949 66.0836,125.81494 73.96431,125.94468 74.1308,125.95865 74.71071,126.53905 L 75.30204,127.13088 76.06515,126.40676 C 76.48486,126.0085 77.11482,125.12106 77.46505,124.43467 Z"
         id="path905-1" />
    </g>
    <g
       inkscape:export-ydpi="29.99"
       inkscape:export-xdpi="29.99"
       id="g1112">
      <rect
         y="117.67577"
         x="-20.105913"
         height="23.758009"
         width="41.720772"
         id="rect970-8"
         style="fill:#ffffff;fill-opacity:1;stroke:none;stroke-width:46.302;stroke-linecap:round;stroke-linejoin:round;stroke-opacity:1" />
      <path
         d="M 0.87773,109.85324 C -1.12173,109.86754 -1.9244,110.01587 -3.21195,110.60514 -5.05151,111.44703 -6.55926,112.86496 -7.2763,114.49017 -7.47982,114.95145 -7.61715,115.13319 -7.62201,115.13664 -7.62444,115.13837 -7.60538,115.13779 -7.66129,115.14026 -7.7172,115.14273 -7.83795,115.13153 -8.01269,115.10305 -10.63708,114.67528 -12.37838,114.00488 -13.73534,112.94504 -14.0384,112.70834 -14.2396,112.50656 -14.62572,112.48409 -14.81879,112.47285 -15.00677,112.54296 -15.13938,112.62465 -15.27198,112.70635 -15.37464,112.79864 -15.4913,112.90422 -15.97928,113.34585 -16.27527,114.07626 -16.55583,114.93717 -16.8364,115.79808 -17.041,116.75823 -17.05761,117.5644 L -17.0695,118.18555 -18.03016,118.09925 C -18.78129,118.03118 -20.02854,117.67115 -20.73904,117.31429 -21.24592,117.0597 -21.6221,116.89435 -21.95189,116.81199 -22.11678,116.77082 -22.2747,116.74577 -22.45625,116.77323 -22.6378,116.80069 -22.85949,116.92227 -22.97146,117.10344 -23.07158,117.26544 -23.08239,117.35015 -23.12598,117.4998 -23.16957,117.64947 -23.21572,117.8323 -23.26447,118.04292 -23.36196,118.46416 -23.46824,118.99311 -23.56161,119.53896 -24.0391,122.33042 -23.58809,124.55276 -22.12397,126.20263 -21.8738,126.48454 -21.68179,126.70413 -21.48163,126.88269 -21.28148,127.06126 -21.04738,127.212 -20.76436,127.25166 -20.48134,127.29131 -20.21833,127.21505 -19.96751,127.10335 -19.71669,126.99165 -19.45158,126.83692 -19.10813,126.63826 -19.01094,126.58205 -18.51885,126.4531 -17.30928,126.39642 -16.0997,126.33974 -14.17369,126.31945 -11.11017,126.31787 L -3.34269,126.31425 -2.4523,125.56443 C -1.8127,125.02623 -1.22304,123.9678 -0.59867,122.61887 -0.02222,121.3735 0.50345,119.89692 0.90356,118.48424 L 1.03792,118.94519 C 1.41328,120.22553 1.98032,121.66997 2.55204,122.89431 2.8379,123.50649 3.12413,124.06321 3.39385,124.51953 3.66357,124.97586 3.89729,125.326 4.169,125.57218 4.33618,125.72365 4.57899,125.86303 4.89144,125.94683 5.20388,126.03062 5.6011,126.08164 6.2004,126.1246 7.39899,126.21053 9.41669,126.25421 13.06354,126.31425 17.00367,126.37911 19.02396,126.41655 20.08327,126.50546 20.61293,126.54992 20.89423,126.61091 21.03619,126.66565 21.17812,126.72039 21.20953,126.75516 21.34676,126.89251 L 22.2821,127.82786 23.39728,126.76952 C 24.83924,125.40126 25.59095,123.52914 25.59095,121.37295 25.59095,120.56058 25.43499,119.47873 25.23748,118.56434 25.13872,118.10714 25.02937,117.69736 24.91502,117.37682 24.85785,117.21653 24.80265,117.07991 24.72588,116.951 24.68749,116.88655 24.64619,116.82217 24.57137,116.75153 24.49655,116.68088 24.36661,116.58358 24.16519,116.58358 24.02189,116.58358 24.02014,116.60295 23.99518,116.61097 23.97022,116.61899 23.95462,116.62558 23.93678,116.63267 23.90108,116.64686 23.86398,116.66208 23.82154,116.68125 23.73667,116.7196 23.62871,116.77249 23.49908,116.83576 23.2398,116.96231 22.89784,117.13441 22.53222,117.3241 21.82709,117.68994 20.68163,118.01898 19.81921,118.09718 L 18.74899,118.1933 18.65339,116.75153 C 18.55854,115.34033 18.33159,114.37674 17.8586,113.58583 17.69158,113.30654 17.53157,113.05351 17.40333,112.86288 17.33922,112.76757 17.28452,112.68874 17.23332,112.62258 17.20772,112.5895 17.18451,112.55971 17.1496,112.52336 17.13214,112.50519 17.11292,112.48668 17.07312,112.4567 17.05321,112.44171 17.02887,112.42309 16.98527,112.40192 16.96348,112.39133 16.93729,112.37901 16.90155,112.36885 16.86581,112.3587 16.76317,112.34921 16.76254,112.34921 16.7619,112.34921 16.67946,112.35641 16.65713,112.3611 16.63478,112.36579 16.62076,112.37073 16.60855,112.37454 16.58412,112.38215 16.57046,112.38696 16.55791,112.3921 16.53282,112.40242 16.51538,112.41047 16.49693,112.41949 16.46003,112.43754 16.41911,112.45851 16.37187,112.48409 16.27739,112.53524 16.15461,112.6053 16.00497,112.69131 15.70567,112.86333 15.30549,113.0987 14.87584,113.35742 13.17461,114.38186 11.27277,114.99608 10.0012,114.99608 9.58162,114.99608 9.465,114.9641 9.40744,114.92167 9.34988,114.87923 9.21804,114.69107 9.00488,114.21835 8.3346,112.73194 6.91531,111.49734 4.9426,110.57206 3.65664,109.9689 2.92843,109.83857 0.87773,109.85324 Z M 8.09744,132.22293 C 7.67009,132.2263 7.30733,132.23373 6.99518,132.24567 5.7466,132.29342 5.22377,132.44348 4.75088,132.69112 4.10885,133.02734 3.58927,133.56055 3.17888,134.33547 2.76849,135.11039 2.44147,136.13031 2.09884,137.54458 1.6646,139.33692 1.27974,143.24232 0.94646,146.51147 0.57795,142.60137 0.14347,139.54549 -0.39351,137.34355 -0.93976,135.10361 -1.54052,133.67942 -2.48124,132.98206 -2.67402,132.83916 -2.90703,132.6859 -3.22745,132.58984 -3.54786,132.49377 -3.94019,132.44289 -4.55192,132.41 -5.7754,132.34424 -7.90228,132.356 -12.04397,132.38468 -14.62448,132.40255 -16.50414,132.38911 -17.89167,132.43533 -19.2792,132.48154 -20.17585,132.5687 -20.8486,132.88853 -21.52135,133.20837 -21.86489,133.85353 -21.95189,134.57783 -22.03888,135.30213 -21.97566,136.1759 -21.97566,137.37094 -21.97566,138.36481 -21.94407,139.25669 -21.88936,139.95476 -21.862,140.30379 -21.83059,140.60436 -21.79014,140.85135 -21.74968,141.09833 -21.72119,141.27292 -21.61444,141.47612 -21.21028,142.24549 -20.29363,143.6673 -19.43266,144.9312 -19.00218,145.56316 -18.59019,146.15 -18.26478,146.58588 -18.10206,146.80382 -17.96088,146.98266 -17.84464,147.11867 -17.78654,147.18668 -17.73637,147.24225 -17.67876,147.29644 -17.64995,147.32352 -17.62138,147.35024 -17.57334,147.38273 -17.5253,147.41523 -17.47304,147.48195 -17.26484,147.48195 -17.03888,147.48195 -16.95528,147.40851 -16.86227,147.35121 -16.76928,147.2939 -16.68555,147.22828 -16.59873,147.15226 -16.4251,147.00021 -16.24455,146.80888 -16.07524,146.59364 -15.8074,146.25314 -15.61004,145.85775 -15.52231,145.30844 -15.43457,144.75912 -15.41895,144.04026 -15.41895,142.85123 -15.41895,141.55885 -15.40213,140.86733 -15.33885,140.55059 -15.27558,140.23386 -15.28982,140.2998 -15.01639,140.12064 -14.5235,139.79769 -13.79214,140.07001 -13.6511,140.59555 -13.66453,140.54552 -13.64469,140.63548 -13.6356,140.74386 -13.62651,140.85225 -13.61722,141.00469 -13.60821,141.18931 -13.59018,141.55854 -13.57382,142.06219 -13.55963,142.66209 -13.53124,143.86189 -13.51224,145.44493 -13.51054,147.11505 L -13.50279,153.37462 -12.51474,154.61692 C -11.64851,155.70637 -10.68913,156.79409 -9.88958,157.6188 -9.4898,158.03116 -9.13091,158.37706 -8.83486,158.63063 -8.68683,158.75742 -8.55685,158.86052 -8.43075,158.94327 -8.30465,159.02603 -8.22582,159.12258 -7.93827,159.12258 -7.65833,159.12258 -7.30833,159.06486 -7.04789,158.81408 -6.78744,158.56329 -6.67511,158.22747 -6.59675,157.79088 -6.44001,156.91772 -6.42096,155.50683 -6.41899,152.9488 -6.41763,151.19533 -6.39265,149.88994 -6.33889,148.98005 -6.28514,148.07016 -6.15272,147.5042 -6.1358,147.47058 -5.87862,146.95966 -5.05974,146.81767 -4.59068,147.24217 -4.50419,147.32043 -4.49887,147.31215 -4.45218,147.46077 -4.40548,147.60938 -4.35386,147.91291 -4.32144,148.44727 -4.2566,149.51599 -4.24909,151.49663 -4.24909,155.20655 V 163.33938 L -1.86216,165.08966 C -1.26005,165.53107 -0.70215,165.9312 -0.2881,166.22448 -0.08106,166.37112 0.08967,166.49046 0.21575,166.57588 0.27879,166.6186 0.33009,166.65382 0.37388,166.6813 0.39577,166.69505 0.41527,166.70666 0.44054,166.72057 0.45318,166.72752 0.46488,166.73509 0.48912,166.74589 0.50124,166.75128 0.51605,166.75753 0.54028,166.76553 0.5524,166.76953 0.56683,166.7744 0.58679,166.77897 0.60674,166.78353 0.67066,166.79083 0.67102,166.79085 1.00578,166.81116 1.08932,166.70749 1.28597,166.6074 1.48261,166.50732 1.71502,166.37084 1.98722,166.19709 2.53161,165.84958 3.23146,165.35699 4.02637,164.75945 L 6.01074,163.26755 V 155.21843 C 6.01074,151.77696 6.0254,149.81179 6.08516,148.68136 6.11505,148.11615 6.15879,147.76095 6.20608,147.5543 6.25337,147.34765 6.28208,147.31219 6.31925,147.27111 6.66345,146.89078 7.30601,146.875 7.65354,147.22254 7.68902,147.25802 7.78902,147.42357 7.84681,148.20852 7.9046,148.99347 7.92277,150.31604 7.92277,152.51524 7.92277,154.93077 7.93012,156.24521 8.00287,157.05811 8.03925,157.46455 8.08962,157.75208 8.18839,158.00172 8.28716,158.25137 8.44994,158.44723 8.59663,158.57998 8.78654,158.75184 9.00022,158.88059 9.22192,158.97066 9.44363,159.06072 9.66312,159.13242 9.95417,159.06832 10.14829,159.02558 10.18912,158.96994 10.26682,158.91381 10.34453,158.85767 10.42366,158.79285 10.5128,158.71434 10.69108,158.5573 10.90675,158.34835 11.15358,158.09732 11.64729,157.59529 12.26359,156.92339 12.89146,156.19512 L 15.27271,153.43508 15.28046,146.87476 C 15.28489,143.51685 15.30944,141.74638 15.45616,140.87305 15.52951,140.43639 15.62385,140.2574 15.70214,140.1718 15.78043,140.0862 15.89965,140.0273 16.17705,139.93926 16.32136,139.89345 16.3619,139.89639 16.45404,139.93151 16.54619,139.96664 16.70371,140.07162 16.92688,140.2948 17.22488,140.59279 17.2872,140.6442 17.35837,141.01155 17.42954,141.3789 17.44622,142.07729 17.44622,143.37884 17.44622,144.46909 17.46872,145.19542 17.53821,145.72805 17.60769,146.26068 17.73683,146.64757 18.00898,146.91971 18.15064,147.06137 18.30297,147.18326 18.45598,147.28093 18.60899,147.37861 18.70912,147.48195 19.0146,147.48195 19.22032,147.48195 19.27385,147.41719 19.32311,147.38428 19.37236,147.35137 19.40437,147.32314 19.43473,147.29488 19.49546,147.23838 19.54845,147.17918 19.61043,147.1073 19.73441,146.96356 19.88353,146.77503 20.05382,146.54867 20.39442,146.09599 20.81682,145.49633 21.23359,144.88625 21.65036,144.27617 22.05982,143.65723 22.3684,143.15974 22.52268,142.91098 22.65135,142.69246 22.74719,142.51533 22.79512,142.42676 22.83519,142.3488 22.86812,142.27297 22.89321,142.21516 22.92451,142.18242 22.93788,142.07866 22.93875,142.06664 22.94373,142.04042 22.96216,142.01562 23.00643,141.95606 23.08402,141.87445 23.16112,141.81046 23.49358,141.53455 23.59365,141.12026 23.65721,140.486 23.72077,139.85174 23.73938,138.92132 23.73938,137.46448 23.73938,135.84635 23.72829,134.92648 23.65153,134.3024 23.57477,133.6783 23.35557,133.2668 23.0712,133.00945 22.8964,132.85126 22.6466,132.72537 22.32706,132.64823 22.00752,132.57109 21.59588,132.52241 20.97934,132.48028 19.74627,132.39603 17.69259,132.34782 14.07899,132.28701 11.24409,132.23932 9.37949,132.21285 8.09744,132.22293 Z"
         style="color:#000000;font-style:normal;font-variant:normal;font-weight:normal;font-stretch:normal;font-size:medium;line-height:normal;font-family:sans-serif;font-variant-ligatures:normal;font-variant-position:normal;font-variant-caps:normal;font-variant-numeric:normal;font-variant-alternates:normal;font-variant-east-asian:normal;font-feature-settings:normal;font-variation-settings:normal;text-indent:0;text-align:start;text-decoration:none;text-decoration-line:none;text-decoration-style:solid;text-decoration-color:#000000;letter-spacing:normal;word-spacing:normal;text-transform:none;writing-mode:lr-tb;direction:ltr;text-orientation:mixed;dominant-baseline:auto;baseline-shift:baseline;text-anchor:start;white-space:normal;shape-padding:0;shape-margin:0;inline-size:0;clip-rule:nonzero;display:inline;overflow:visible;visibility:visible;isolation:auto;mix-blend-mode:normal;color-interpolation:sRGB;color-interpolation-filters:linearRGB;solid-color:#000000;solid-opacity:1;vector-effect:none;fill:#000000;fill-opacity:1;fill-rule:nonzero;stroke:none;stroke-width:1;stroke-linecap:butt;stroke-linejoin:miter;stroke-miterlimit:4;stroke-dasharray:none;stroke-dashoffset:0;stroke-opacity:1;color-rendering:auto;image-rendering:auto;shape-rendering:auto;text-rendering:auto;enable-background:accumulate;stop-color:#000000"
         id="path963-00" />
      <path
         style="fill:#ffffff;stroke-width:1"
         d="M -1.32654,167.62043 C -5.88442,164.54953 -10.33069,160.18746 -15.07506,154.13227 -17.62441,150.87856 -22.79911,143.50261 -22.79911,143.1225 -22.79911,143.03534 -23.03723,142.6613 -23.32827,142.2913 -23.7919,141.70189 -23.85744,141.21794 -23.85744,138.38389 -23.85744,133.57865 -23.7015,132.80275 -22.49285,131.5941 -21.24973,130.35097 -21.11933,129.27034 -22.14613,128.72081 -23.12417,128.19739 -24.49094,126.407 -25.0714,124.8889 -25.73717,123.14769 -25.73637,119.27475 -25.06985,117.43544 -24.68577,116.37552 -23.45223,113.7659 -23.16995,113.41607 -23.12746,113.36341 -22.58015,113.73554 -21.95371,114.24302 -20.77772,115.19569 -19.32994,116.02535 -18.8435,116.02535 -18.69075,116.02535 -18.56055,115.75746 -18.55416,115.43004 -18.52391,113.87922 -17.00737,111.35564 -15.4312,110.23331 L -14.7144,109.7229 -13.66352,110.66377 C -12.59579,111.61973 -9.77124,113.11435 -9.03167,113.11473 -8.80839,113.11484 -8.41751,112.76251 -8.16307,112.33176 -7.05371,110.45378 -3.86837,108.60843 -0.83634,108.08721 2.62133,107.49282 7.01755,108.96097 9.1982,111.43831 9.78979,112.11039 10.27381,112.77745 10.27381,112.92068 10.27381,113.69155 13.70862,112.19644 15.44109,110.67145 L 16.65743,109.60079 17.72068,110.63026 C 18.96889,111.83881 19.88766,113.33284 20.34695,114.90087 20.52811,115.51934 20.77891,116.02535 20.90428,116.02535 21.26037,116.02535 23.29247,114.7116 24.09553,113.96221 24.4942,113.59019 24.86647,113.33666 24.92281,113.39881 25.55838,114.1 26.80127,116.92172 27.09689,118.33465 28.02623,122.77642 27.06657,126.26668 24.30597,128.48516 22.96395,129.56364 22.87612,130.47466 24.0318,131.32909 25.36079,132.31166 25.61965,133.35159 25.61965,137.70814 25.61965,142.13476 26.0714,140.93882 22.11123,146.99605 17.91015,153.42175 11.17094,161.29826 6.87374,164.805 4.69418,166.58363 1.28061,168.94415 0.90014,168.9358 0.74415,168.93238 -0.25786,168.34046 -1.32654,167.62043 Z M 1.36152,165.99932 C 1.67937,165.83604 2.74311,165.09832 3.72537,164.35995 L 5.51131,163.01745 V 155.2188 C 5.51131,148.33337 5.56259,147.36349 5.94919,146.93629 6.48658,146.34248 7.44839,146.31065 8.00595,146.86821 8.35589,147.21815 8.42173,148.11238 8.42173,152.51575 8.42173,157.3441 8.46101,157.78306 8.93121,158.20858 9.21142,158.46217 9.62323,158.62945 9.84633,158.58032 10.06943,158.53118 11.26891,157.31141 12.51185,155.86972 L 14.77173,153.24846 14.78014,146.87389 C 14.78901,140.15547 14.84227,139.83847 16.02511,139.46305 16.46288,139.32411 16.78672,139.44754 17.28086,139.94169 17.90753,140.56835 17.94673,140.77069 17.94673,143.3788 17.94673,145.54535 18.03745,146.24078 18.3625,146.56583 18.59118,146.79451 18.88427,146.9816 19.01381,146.9816 19.25907,146.9816 22.44464,142.31844 22.44464,141.95942 22.44464,141.84684 22.62324,141.60651 22.84152,141.42535 23.15902,141.16186 23.2384,140.36978 23.2384,137.46521 23.2384,134.23468 23.183,133.78432 22.73589,133.37969 22.29112,132.97718 21.29562,132.90915 14.07079,132.78759 6.51269,132.66042 5.83961,132.68616 4.98214,133.1352 3.872,133.71656 3.26142,134.86949 2.58495,137.66171 2.00198,140.06797 1.02692,147.65921 0.98199,150.14144 0.96205,151.24256 0.77551,149.99151 0.47136,146.71702 -0.27094,138.72507 -1.30739,134.47502 -2.78033,133.38313 -3.51135,132.84122 -3.75798,132.82797 -12.04075,132.88532 -22.37639,132.95689 -21.47619,132.52892 -21.47619,137.37102 -21.47619,139.33803 -21.35381,140.89935 -21.1726,141.24431 -20.42131,142.67449 -17.48734,146.9816 -17.2644,146.9816 -17.12816,146.9816 -16.76991,146.66789 -16.46831,146.28446 -15.99383,145.68126 -15.91994,145.21864 -15.91994,142.85098 -15.91994,140.26188 -15.8861,140.09246 -15.29098,139.70253 -14.5145,139.19376 -13.40182,139.59357 -13.16785,140.46542 -13.08475,140.7751 -13.01397,143.76692 -13.01057,147.1139 L -13.00439,153.19931 -12.12439,154.30609 C -10.41426,156.45692 -8.31401,158.62327 -7.93894,158.62327 -7.02573,158.62327 -6.92416,158.05741 -6.92021,152.94796 -6.91748,149.4315 -6.81564,147.70767 -6.58335,147.24619 -6.16691,146.4189 -4.96769,146.2254 -4.25487,146.87049 -3.77848,147.30162 -3.74911,147.78572 -3.74911,155.20689 V 163.08557 L -1.56629,164.68581 C -0.36575,165.56594 0.65411,166.28833 0.70006,166.29112 0.74601,166.29391 1.04366,166.1626 1.36152,165.99932 Z M 1.67901,135.91799 C 2.52001,133.36729 3.54133,132.10467 5.11753,131.66709 5.77181,131.48545 8.96257,131.37358 13.51496,131.37266 L 20.85714,131.37119 V 129.4045 127.43781 L 12.9437,127.35398 5.03026,127.27015 4.01402,126.44785 C 3.41812,125.96568 2.55421,124.79354 1.9254,123.61404 L 0.85303,121.60252 0.11076,123.16547 C -0.9917,125.48683 -2.17766,126.74787 -3.59369,127.10443 -4.32621,127.28888 -7.50511,127.40244 -11.93606,127.40244 H -19.09494 V 129.38681 131.37119 L -11.75275,131.37266 C -7.51875,131.37351 -3.99402,131.48982 -3.42659,131.64741 -1.5049,132.18112 -0.50925,133.58769 0.46958,137.15163 0.64333,137.78426 0.82331,138.26051 0.86955,138.20997 0.91578,138.15942 1.28004,137.12803 1.67901,135.91799 Z M 24.45369,124.43467 C 25.22489,122.92329 25.31957,120.23155 24.66873,118.32144 24.43677,117.64068 24.20964,117.08369 24.16398,117.08369 24.11833,117.08369 23.48779,117.39144 22.76278,117.76759 21.97668,118.17544 20.80693,118.50932 19.86488,118.59474 L 18.28519,118.73798 18.15402,116.78636 C 18.06169,115.41276 17.8471,114.54086 17.42948,113.84254 17.10314,113.29684 16.80278,112.85035 16.76202,112.85035 16.72127,112.85035 15.98889,113.2713 15.13451,113.78578 13.37107,114.84768 11.42483,115.49619 10.00139,115.49619 9.12354,115.49619 8.98531,115.39428 8.54814,114.42482 7.94483,113.08691 6.63026,111.91649 4.72963,111.02502 3.47632,110.43717 2.9151,110.3393 0.8811,110.35385 -1.09915,110.36801 -1.75354,110.48685 -3.00491,111.05955 -4.74304,111.85503 -6.16475,113.20915 -6.81921,114.6925 -7.23565,115.63638 -7.35044,115.71791 -8.09269,115.59693 -10.76478,115.16139 -12.60202,114.4642 -14.04254,113.3391 -14.63251,112.87831 -14.71334,112.87361 -15.1561,113.27429 -15.78517,113.8436 -16.52757,116.1216 -16.55752,117.57448 L -16.5814,118.73252 -18.07562,118.59711 C -18.9232,118.5203 -20.17301,118.15875 -20.9636,117.76166 -21.94911,117.26667 -22.41256,117.15093 -22.54582,117.36655 -22.64947,117.53426 -22.88452,118.54977 -23.06814,119.62322 -23.53001,122.32336 -23.10343,124.34562 -21.75036,125.87034 -20.75165,126.99574 -20.73102,126.99863 -19.35952,126.20534 -18.82496,125.89614 -17.24262,125.82199 -11.11159,125.81884 L -3.52512,125.81494 -2.77364,125.18261 C -1.81926,124.37954 -0.24533,120.97917 0.54574,118.01126 L 0.89795,116.68987 1.51803,118.80501 C 2.24937,121.2996 3.75308,124.51984 4.50453,125.20069 4.9872,125.63802 5.78055,125.6949 13.07224,125.81494 20.95295,125.94468 21.11944,125.95865 21.69935,126.53905 L 22.29068,127.13088 23.05379,126.40676 C 23.4735,126.0085 24.10346,125.12106 24.45369,124.43467 Z"
         id="path905-2" />
    </g>
  </g>
</svg>
